<?xml version="1.0" encoding="UTF-8"?>
<svg version="1.1" xmlns="http://www.w3.org/2000/svg" width="32" height="32">
<path d="M0 0 C10.56 0 21.12 0 32 0 C32 10.56 32 21.12 32 32 C21.44 32 10.88 32 0 32 C0 21.44 0 10.88 0 0 Z " fill="#2699D6" transform="translate(0,0)"/>
<path d="M0 0 C10.56 0 21.12 0 32 0 C32 10.56 32 21.12 32 32 C21.44 32 10.88 32 0 32 C0 21.44 0 10.88 0 0 Z M3.6875 7.625 C0.83856883 11.63460684 0.66998859 14.04982882 1 19 C3.04317839 24.67549553 6.59747441 28.29873721 12 31 C17.25189007 31.40399154 20.56881474 30.88990343 25 28 C28.77829082 24.27262954 30.80605259 21.05584251 31.3125 15.6875 C30.84440916 10.16402813 28.47578817 7.33180884 24.4375 3.6875 C16.61031511 -1.73132031 9.56118505 0.95757373 3.6875 7.625 Z " fill="#F6F9FA" transform="translate(0,0)"/>
<path d="M0 0 C4.875 0.875 4.875 0.875 6 2 C6.1245486 3.64230364 6.17568524 5.29052276 6.1875 6.9375 C6.20167969 7.83339844 6.21585938 8.72929687 6.23046875 9.65234375 C6 12 6 12 4 14 C1.06546739 13.63318342 0.13562754 13.13562754 -2 11 C-2.46376812 3.69565217 -2.46376812 3.69565217 0 0 Z " fill="#1994D4" transform="translate(11,9)"/>
<path d="M0 0 C2.9375 0.875 2.9375 0.875 4.9375 3.875 C5.23828125 6.25 5.23828125 6.25 5.25 8.875 C5.26675781 9.74125 5.28351562 10.6075 5.30078125 11.5 C4.9375 13.875 4.9375 13.875 3.609375 15.66796875 C1.05536964 17.51186515 -1.00927148 17.19981154 -4.0625 16.875 C-6.75351234 14.18398766 -6.36137549 12.68424054 -6.375 8.9375 C-6.39175781 7.87660156 -6.40851562 6.81570312 -6.42578125 5.72265625 C-6.0625 2.875 -6.0625 2.875 -4.734375 0.98828125 C-3.0625 -0.125 -3.0625 -0.125 0 0 Z M-3.0625 1.875 C-5.59560053 5.67465079 -5.66468032 8.41886562 -5.0625 12.875 C-3.99531702 15.03065917 -3.99531702 15.03065917 -2.0625 15.875 C0.07495922 15.62353421 1.39675779 15.41574221 2.9375 13.875 C3.0620486 12.23269636 3.11318524 10.58447724 3.125 8.9375 C3.14626953 7.59365234 3.14626953 7.59365234 3.16796875 6.22265625 C3.16944769 3.68385466 3.16944769 3.68385466 0.9375 1.875 C-0.3825 1.875 -1.7025 1.875 -3.0625 1.875 Z " fill="#CCE7F5" transform="translate(14.0625,7.125)"/>
<path d="M0 0 C0.33 0 0.66 0 1 0 C1.04898437 0.62648438 1.09796875 1.25296875 1.1484375 1.8984375 C1.22320312 2.71570313 1.29796875 3.53296875 1.375 4.375 C1.44460938 5.18710937 1.51421875 5.99921875 1.5859375 6.8359375 C1.82892588 9.20334191 1.82892588 9.20334191 4 11 C6.26274788 10.64644564 7.95088852 10.02455574 10 9 C9.34 10.32 8.68 11.64 8 13 C5.125 13.125 5.125 13.125 2 13 C0 11 0 11 -0.1953125 8.3984375 C-0.17210937 7.40070312 -0.14890625 6.40296875 -0.125 5.375 C-0.10695313 4.37210938 -0.08890625 3.36921875 -0.0703125 2.3359375 C-0.04710937 1.56507812 -0.02390625 0.79421875 0 0 Z " fill="#E9F4FA" transform="translate(8,11)"/>
</svg>
